<svg xmlns="http://www.w3.org/2000/svg" viewBox="0 0 263.38898 86.19099">
  <defs>
    <style>
      .cls-1 {
        fill: #1d1d1b;
      }

      .cls-2 {
        fill: #e4221c;
      }
    </style>
  </defs>
  <g id="Layer_2" data-name="Layer 2">
    <g id="Layer_1-2" data-name="Layer 1">
      <g>
        <path class="cls-1" d="M116.05316,63.1278a7.86264,7.86264,0,0,1,1.554,4.914,7.37641,7.37641,0,0,1-3.382,6.491q-3.38406,2.286-9.783,2.285h-17.28v-32h16.365q6.12452,0,9.326,2.264a7.10608,7.10608,0,0,1,3.2,6.102,7.60782,7.60782,0,0,1-1.12,4.092,7.83546,7.83546,0,0,1-3.177,2.857,8.96914,8.96914,0,0,1,4.297,2.995m-19.931-11.772v6.171h6.217q4.5705,0,4.571-3.108,0-3.0615-4.571-3.063Zm12.342,15.68q0-3.24449-4.75305-3.245h-7.589v6.49h7.589q4.75351,0,4.75305-3.245"/>
        <polygon class="cls-1" points="155.322 69.825 155.322 76.818 129.63 76.818 129.63 44.818 154.727 44.818 154.727 51.813 138.59 51.813 138.59 57.207 152.808 57.207 152.808 63.972 138.59 63.972 138.59 69.825 155.322 69.825"/>
        <path class="cls-1" d="M189.0589,60.1325h8v13.258a20.85476,20.85476,0,0,1-6.309,3.016,25.071,25.071,0,0,1-7.131,1.052,19.07245,19.07245,0,0,1-9.052-2.126,15.85242,15.85242,0,0,1-6.308-5.92,17.2971,17.2971,0,0,1,0-17.188,15.77853,15.77853,0,0,1,6.355-5.92,19.53764,19.53764,0,0,1,9.18695-2.126,20.47179,20.47179,0,0,1,8.047,1.509,14.31282,14.31282,0,0,1,5.21106,3.532l-5.028,6.022a10.152,10.152,0,0,0-7.772-3.566,8.60811,8.60811,0,0,0-9.143,9.143,9.64572,9.64572,0,0,0,1.143,4.731,8.18362,8.18362,0,0,0,3.2,3.246,9.39056,9.39056,0,0,0,4.708,1.166,11.54923,11.54923,0,0,0,4.892-1.052Z"/>
        <rect class="cls-1" x="210.13361" y="44.81809" width="9.052" height="32"/>
        <polygon class="cls-1" points="263.389 44.818 263.389 76.818 255.938 76.818 241.813 59.767 241.813 76.818 232.945 76.818 232.945 44.818 240.396 44.818 254.521 61.87 254.521 44.818 263.389 44.818"/>
        <polygon class="cls-1" points="90.415 33.576 90.415 34.363 87.521 34.363 87.521 30.761 90.349 30.761 90.349 31.548 88.531 31.548 88.531 32.156 90.131 32.156 90.131 32.917 88.531 32.917 88.531 33.576 90.415 33.576"/>
        <path class="cls-1" d="M91.91235,34.3268a2.078,2.078,0,0,1-.669-.288l.335-.751a2.1802,2.1802,0,0,0,.561.257,2.12019,2.12019,0,0,0,.627.097c.391,0,.586-.097.586-.293a.23957.23957,0,0,0-.167-.228,2.93453,2.93453,0,0,0-.537-.158,4.8853,4.8853,0,0,1-.679-.188,1.13692,1.13692,0,0,1-.469-.322.86272.86272,0,0,1-.194-.596,1.03077,1.03077,0,0,1,.178-.594,1.19868,1.19868,0,0,1,.538-.419,2.21565,2.21565,0,0,1,.877-.156,3.15018,3.15018,0,0,1,.7.08,2.12856,2.12856,0,0,1,.608.235l-.314.756a2.097,2.097,0,0,0-.998-.278.8509.8509,0,0,0-.443.09.27177.27177,0,0,0-.139.235.23229.23229,0,0,0,.165.215,2.94721,2.94721,0,0,0,.53.15,4.8213,4.8213,0,0,1,.681.188,1.17234,1.17234,0,0,1,.469.319.84456.84456,0,0,1,.198.594,1.00282,1.00282,0,0,1-.18.586,1.22644,1.22644,0,0,1-.54.421,2.1841,2.1841,0,0,1-.875.156,3.32038,3.32038,0,0,1-.849-.108"/>
        <polygon class="cls-1" points="96.056 31.569 94.949 31.569 94.949 30.76 98.175 30.76 98.175 31.569 97.075 31.569 97.075 34.363 96.056 34.363 96.056 31.569"/>
        <path class="cls-1" d="M98.84406,34.2448a.56063.56063,0,0,1-.17005-.416.54993.54993,0,0,1,.168-.418.63683.63683,0,0,1,.842,0,.61072.61072,0,0,1-.003.834.61593.61593,0,0,1-.837,0"/>
        <path class="cls-1" d="M105.47791,33.5553v.808h-2.804v-.639l1.348-1.26a1.32887,1.32887,0,0,0,.263-.316.59058.59058,0,0,0,.066-.266.33142.33142,0,0,0-.118-.272.52548.52548,0,0,0-.345-.098.75093.75093,0,0,0-.368.09.72742.72742,0,0,0-.275.26l-.756-.422a1.46664,1.46664,0,0,1,.592-.551,1.89765,1.89765,0,0,1,.9-.201,1.85231,1.85231,0,0,1,.727.134,1.12794,1.12794,0,0,1,.495.383.9688.9688,0,0,1,.177.579,1.26141,1.26141,0,0,1-.125.553,2.15373,2.15373,0,0,1-.486.59l-.68.628Z"/>
        <path class="cls-1" d="M107.05243,34.2142a1.48861,1.48861,0,0,1-.563-.646,2.59668,2.59668,0,0,1,0-2.013,1.48861,1.48861,0,0,1,.563-.646,1.63552,1.63552,0,0,1,1.642,0,1.48829,1.48829,0,0,1,.563.646,2.59668,2.59668,0,0,1,0,2.013,1.48829,1.48829,0,0,1-.563.646,1.63552,1.63552,0,0,1-1.642,0m1.23205-.862a2.11656,2.11656,0,0,0,0-1.58.46285.46285,0,0,0-.822,0,2.11591,2.11591,0,0,0,0,1.58.46371.46371,0,0,0,.822,0"/>
        <polygon class="cls-1" points="111.828 30.76 111.828 34.363 110.809 34.363 110.809 31.547 110.14 31.547 110.14 30.76 111.828 30.76"/>
        <path class="cls-1" d="M115.85846,32.8185a.887.887,0,0,1,.134.484.96175.96175,0,0,1-.195.598,1.25084,1.25084,0,0,1-.551.395,2.46254,2.46254,0,0,1-1.637,0,1.24548,1.24548,0,0,1-.551-.395.963.963,0,0,1-.196-.598.89543.89543,0,0,1,.134-.484,1.11414,1.11414,0,0,1,.381-.354.92454.92454,0,0,1-.285-.314.84034.84034,0,0,1-.101-.412.90024.90024,0,0,1,.18-.553,1.1372,1.1372,0,0,1,.507-.368,2.23886,2.23886,0,0,1,1.498,0,1.12653,1.12653,0,0,1,.507.368.8938.8938,0,0,1,.18005.553.85127.85127,0,0,1-.1.412.92792.92792,0,0,1-.286.314,1.10606,1.10606,0,0,1,.381.354m-1.036.781a.44032.44032,0,0,0,0-.655.702.702,0,0,0-.788,0,.43836.43836,0,0,0,0,.655.70682.70682,0,0,0,.788,0m-.704-2.095a.38871.38871,0,0,0-.002.556.46185.46185,0,0,0,.312.1.47025.47025,0,0,0,.313-.1.38433.38433,0,0,0,0-.556.53088.53088,0,0,0-.623,0"/>
        <path class="cls-1" d="M220.6908,34.3268a2.09789,2.09789,0,0,1-.669-.288l.335-.751a2.18725,2.18725,0,0,0,.562.257,2.11872,2.11872,0,0,0,.626.097c.39105,0,.587-.097.587-.293a.24233.24233,0,0,0-.167-.228,2.97749,2.97749,0,0,0-.538-.158,4.92435,4.92435,0,0,1-.679-.188,1.137,1.137,0,0,1-.469-.322.86792.86792,0,0,1-.195-.596,1.03212,1.03212,0,0,1,.18-.594,1.18984,1.18984,0,0,1,.537-.419,2.22073,2.22073,0,0,1,.878-.156,3.15736,3.15736,0,0,1,.7.08,2.14021,2.14021,0,0,1,.608.235l-.314.756a2.101,2.101,0,0,0-.999-.278.84446.84446,0,0,0-.442.09.27183.27183,0,0,0-.139.235.22966.22966,0,0,0,.165.215,2.90685,2.90685,0,0,0,.529.15,4.839,4.839,0,0,1,.682.188,1.1786,1.1786,0,0,1,.469.319.85323.85323,0,0,1,.197.594,1.009,1.009,0,0,1-.179.586,1.23165,1.23165,0,0,1-.54.421,2.19063,2.19063,0,0,1-.875.156,3.33408,3.33408,0,0,1-.85-.108"/>
        <polygon class="cls-1" points="224.834 31.569 223.728 31.569 223.728 30.76 226.953 30.76 226.953 31.569 225.853 31.569 225.853 34.363 224.834 34.363 224.834 31.569"/>
        <path class="cls-1" d="M227.62238,34.2448a.55978.55978,0,0,1-.169-.416.55273.55273,0,0,1,.167-.418.63683.63683,0,0,1,.842,0,.60681.60681,0,0,1-.004.834.56843.56843,0,0,1-.418.164.57779.57779,0,0,1-.418-.164"/>
        <path class="cls-1" d="M234.07172,33.6638h-1.525l-.282.699h-1.039l1.59-3.602h1.004l1.595,3.602h-1.06Zm-.29895-.752-.463-1.153-.463,1.153Z"/>
        <polygon class="cls-1" points="239.645 30.76 239.645 34.363 238.806 34.363 237.215 32.443 237.215 34.363 236.217 34.363 236.217 30.76 237.057 30.76 238.647 32.68 238.647 30.76 239.645 30.76"/>
        <path class="cls-1" d="M240.88025,30.7605h1.703a2.36246,2.36246,0,0,1,1.05.222,1.66082,1.66082,0,0,1,.711.628,1.92919,1.92919,0,0,1,0,1.903,1.68272,1.68272,0,0,1-.711.629,2.38964,2.38964,0,0,1-1.05.22h-1.703Zm1.663,2.789a1.04053,1.04053,0,0,0,.743-.262,1.08409,1.08409,0,0,0,0-1.452,1.04049,1.04049,0,0,0-.743-.262h-.644v1.976Z"/>
        <path class="cls-1" d="M247.22137,33.4058h-.557v.957h-1.019v-3.602h1.648a2.05276,2.05276,0,0,1,.848.162,1.25046,1.25046,0,0,1,.556.463,1.27288,1.27288,0,0,1,.196.708,1.24731,1.24731,0,0,1-.183.681,1.23093,1.23093,0,0,1-.523.456l.779,1.132h-1.092Zm.483-1.703a.7024.7024,0,0,0-.47406-.139h-.566v1.054h.566a.71308.71308,0,0,0,.47406-.136.48687.48687,0,0,0,.16-.388.49472.49472,0,0,0-.16-.391"/>
        <polygon class="cls-1" points="252.861 33.576 252.861 34.363 249.969 34.363 249.969 30.761 252.794 30.761 252.794 31.548 250.977 31.548 250.977 32.156 252.578 32.156 252.578 32.917 250.977 32.917 250.977 33.576 252.861 33.576"/>
        <polygon class="cls-1" points="259.54 30.76 258.372 34.363 257.281 34.363 256.592 32.17 255.871 34.363 254.779 34.363 253.611 30.76 254.662 30.76 255.388 33.061 256.148 30.76 257.085 30.76 257.811 33.081 258.567 30.76 259.54 30.76"/>
        <path class="cls-1" d="M260.83716,34.3268a2.082,2.082,0,0,1-.668-.288l.334-.751a2.18043,2.18043,0,0,0,.561.257,2.12983,2.12983,0,0,0,.627.097c.392,0,.586-.097.586-.293a.23958.23958,0,0,0-.167-.228,2.91965,2.91965,0,0,0-.536-.158,4.84217,4.84217,0,0,1-.679-.188,1.12373,1.12373,0,0,1-.469-.322.86792.86792,0,0,1-.195-.596,1.024,1.024,0,0,1,.179-.594,1.19874,1.19874,0,0,1,.538-.419,2.21565,2.21565,0,0,1,.877-.156,3.15087,3.15087,0,0,1,.7.08,2.13361,2.13361,0,0,1,.607.235l-.314.756a2.09412,2.09412,0,0,0-.998-.278.85328.85328,0,0,0-.443.09.27177.27177,0,0,0-.139.235.23229.23229,0,0,0,.165.215,2.98728,2.98728,0,0,0,.531.15,4.89843,4.89843,0,0,1,.681.188,1.17871,1.17871,0,0,1,.469.319.84456.84456,0,0,1,.198.594,1.00239,1.00239,0,0,1-.18.586,1.232,1.232,0,0,1-.54.421,2.1839,2.1839,0,0,1-.875.156,3.33973,3.33973,0,0,1-.85-.108"/>
        <path class="cls-1" d="M57.03571,27.6166h4.50305l.004.001.005-.001h.086c.029,0,.052-.013.08-.015a3.18178,3.18178,0,0,0,2.1-.926,3.2181,3.2181,0,0,0,0-4.547,3.28622,3.28622,0,0,0-4.541,0,3.219,3.219,0,0,0-.722,3.43h-1.515a1.029,1.029,0,1,0,0,2.058m3.693-4.033a1.15031,1.15031,0,0,1,1.62994.001,1.15813,1.15813,0,0,1,0,1.636,1.17938,1.17938,0,0,1-1.631,0,1.1585,1.1585,0,0,1,.001-1.637"/>
        <path class="cls-1" d="M19.514,43.3336a1.03048,1.03048,0,0,0,.969,0l1.362-.727a1.02942,1.02942,0,0,0-.97-1.816l-.877.469-.878-.469a1.02894,1.02894,0,0,0-.968,1.816Z"/>
        <path class="cls-1" d="M14.70636,40.7672a1.02917,1.02917,0,0,0,.969-1.816l-2.953-1.578a1.02962,1.02962,0,1,0-.969,1.817Z"/>
        <path class="cls-1" d="M3.30005,31.08659a1.03215,1.03215,0,0,0-1.393-.423l-1.362.728a1.02886,1.02886,0,0,0,0,1.816l1.362.727a1.02956,1.02956,0,0,0,1.213-1.636,1.02849,1.02849,0,0,0,.18005-1.212"/>
        <path class="cls-1" d="M36.69659,33.51039a1.02986,1.02986,0,0,0,1.39295.424l1.361-.727a1.02891,1.02891,0,0,0,0-1.816l-1.361-.728a1.02949,1.02949,0,0,0-1.214,1.635,1.02863,1.02863,0,0,0-.179,1.212"/>
        <path class="cls-1" d="M24.807,40.8883a1.02055,1.02055,0,0,0,.483-.121l2.954-1.577a1.02962,1.02962,0,0,0-.969-1.817l-2.953,1.578a1.029,1.029,0,0,0,.485,1.937"/>
        <path class="cls-1" d="M82.40234,26.198c-.013-.037-.029-.07-.046-.107-.018-.037-.028-.078-.05-.115a20.86717,20.86717,0,0,0-17.949-10.08,21.38547,21.38547,0,0,0-2.573.164l-.012-.004a13.16018,13.16018,0,0,0-5.002-.968,13.4672,13.4672,0,0,0-10.992,5.744,33.68311,33.68311,0,0,0-6.536-.649,33.11475,33.11475,0,0,0-5.844.521l-6.636-3.543c1.545-2.925,2.722-5.776,2.722-7.674a9.48648,9.48648,0,1,0-18.973,0c0,1.9,1.177,4.75,2.722,7.674L.54535,23.935a1.02969,1.02969,0,0,0,0,1.817l5.281,2.819-.474.253a1.02917,1.02917,0,0,0,.969,1.816l1.692-.902,11.501,6.141a1.02842,1.02842,0,0,0,.968,0l11.502-6.141,1.69.902a1.02894,1.02894,0,1,0,.968-1.816l-.473-.253,5.281-2.819a1.02974,1.02974,0,0,0,0-1.817l-2.087-1.114c.623-.038,1.248-.065,1.879-.065a31.43707,31.43707,0,0,1,5.218.443c-.144.33-.268.669-.381,1.009-.062.174-.124.349-.175.535-.00995.031-.00995.061-.02.093a3.78038,3.78038,0,0,0-.123.483c-.041.154-.07306.299-.104.453-.04.206-.082.412-.113.618-.01.062-.021.123-.03.196-.021.174-.052.349-.062.524a11.734,11.734,0,0,0-.072,1.369,12.379,12.379,0,0,0,.524,3.634,20.00075,20.00075,0,0,0-.514,3.427.43208.43208,0,0,0-.01.113c0,.268-.011.515-.031.793a10.79414,10.79414,0,0,1-5.497,8.656.52159.52159,0,0,0-.114.041c-.01.011-.03.011-.04.021-.031.01-.052.02-.082.031-.216.102-.433.206-.649.329-.04.011-.072.031-.103.041l-.206.113-.03.011c-.022.01-.031.021-.052.03a32.96452,32.96452,0,0,0-16.963,21.43v.021c-.01.02-.01.041-.02.051,0,.032-.01.052-.01.073a6.18741,6.18741,0,0,1-.176.782c-.01.03-.01.051-.019.071a10.89174,10.89174,0,0,1-3.058,5.054,30.23325,30.23325,0,0,1-6.53-27.598l9.714,5.187a1.02835,1.02835,0,0,0,.968,0l18.968-10.127a1.02973,1.02973,0,0,0,0-1.817l-5.281-2.819.473-.253a1.02894,1.02894,0,1,0-.968-1.816l-1.69.902-1.263.674a1.06724,1.06724,0,0,0-.423,1.393,1.02546,1.02546,0,0,0,.908.544,1.009,1.009,0,0,0,.483-.121l.295-.157,4.796,2.561-16.782,8.96-16.783-8.96,4.798-2.561.293.157a1.01157,1.01157,0,0,0,.483.121,1.02813,1.02813,0,0,0,.909-.544,1.06639,1.06639,0,0,0-.42395-1.393l-1.261-.674-1.692-.902a1.02917,1.02917,0,0,0-.969,1.816l.474.253-5.281,2.819a1.02968,1.02968,0,0,0,0,1.817l6.921,3.694a32.85849,32.85849,0,0,0,6.775,30.367c-.135.083-.258.145-.392.217a1.29081,1.29081,0,0,0,.186,2.377,31.6935,31.6935,0,0,0,3.727.937c.503.432,1.039.865,1.585,1.287.708.537,1.45,1.033,2.207,1.509.461.294.928.578,1.405.848.175.103.349.205.534.298.382.206.763.412,1.153.598.474.236.948.452,1.432.658.03.01.062.031.092.041,0,.01.011.01.02.01v.01c.505.217,1.02.423,1.524.608.02.01.04206.01.052.02.019,0,.041.021.05.021.546.196,1.081.381,1.637.555l1.523.433c.207.052.423.113.608.145.196.05.401.102.617.143l.53595.113c.411.083.833.165,1.255.227.361.061.732.102,1.102.154.308.041.617.072.916.104.237.02.473.041.67.05.28705.032.586.052.853.063.299.021.576.03.865.03.278.011.545.011.824.011.278,0,.544,0,.812-.011.483-.009.979-.03,1.472-.061.34-.021.689-.062,1.029-.093.361-.031.7-.072,1.04-.123.288-.031.576-.072.844-.124.237-.031.473-.072.752-.123.617-.104,1.224-.237,1.78-.371.092-.021.186-.041.216-.052.895-.226,1.822-.493,2.748-.803.144-.051.288-.113.443-.164l.103-.041c.36005-.124.711-.258,1.06-.401.319-.124.638-.258.885-.371.123-.052.227-.093.31-.134.308-.134.617-.278.915-.433.165-.071.33-.154.483-.236l.351-.186c.298-.143.587-.308.875-.473a.24466.24466,0,0,0,.102-.051c.288-.165.587-.329.886-.515a.30165.30165,0,0,1,.062-.041c.319-.196.627-.391.905-.577.309-.195.608-.401.90594-.606.011,0,.011-.011.02106-.011.062-.041.113-.082.17395-.123.35-.247.7-.515,1.03-.772.144-.114.288-.227.422-.34.422-.329.865-.7,1.337-1.122.041-.041.083-.072.124-.114.331-.298.649-.606.989-.916l.524-.535c.011-.01.031-.03.031-.041a11.93752,11.93752,0,0,0,1.009-1.081l.186-.205c.102-.113.206-.237.298-.34.319-.381.638-.762.947-1.163v-.011c.288-.37.576-.751.854-1.142.02-.031.051-.072.073-.103.092-.123.174-.247.267-.381.01-.009.01-.02.02-.041.114-.154.217-.319.308-.463.362-.535.701-1.091,1.02-1.647.267-.442.505-.896.73-1.338a32.50684,32.50684,0,0,0,1.585-3.582c.083-.216.165-.432.238-.638.288-.813.535-1.636.751-2.47q.12452-.432.215-.865c.063-.267.124-.545.187-.823a32.4934,32.4934,0,0,0,.082-13.113c-.123-.617-.257-1.225-.41205-1.832-.154-.608-.319-1.204-.51495-1.802-.082-.288-.175-.565-.278-.853a.14988.14988,0,0,1-.02-.063c-.092-.257-.185-.515-.289-.771a34.04,34.04,0,0,0-1.563-3.5c-.146-.268-.289-.545-.444-.813a.64266.64266,0,0,0-.061-.124l-.002-.004a21.115,21.115,0,0,0,14.267-9.742c.024-.04.035-.085.055-.127.014-.03.028-.06.039-.091a1.2711,1.2711,0,0,0,.002-.901M12.56934,9.487a7.4285,7.4285,0,1,1,14.857,0c0,2.808-3.821,9.477-7.428,14.833-3.607-5.354-7.429-12.022-7.429-14.833m19.414,17.918-1.774.947-10.211,5.451-10.212-5.452-1.773-.947-4.798-2.561,11.01-5.878c1.401,2.459,2.944,4.845,4.152,6.633a1.95725,1.95725,0,0,0,1.62.864h.001a1.95664,1.95664,0,0,0,1.621-.864c1.208-1.788,2.75-4.175,4.15-6.634l11.011,5.879Zm29.429-8.693.00495-.001a10.82222,10.82222,0,0,1,6.178,9.768,10.66531,10.66531,0,0,1-2.031,6.289h-.004a11.69023,11.69023,0,0,1-1.204.052,18.24165,18.24165,0,0,1-10.921-3.582,18.42853,18.42853,0,0,1-4.394-4.591c.102-.154.206-.299.309-.453a17.94185,17.94185,0,0,1,1.616-1.955,18.4098,18.4098,0,0,1,10.446-5.527m-14.369,5.033.094-.175a5.8455,5.8455,0,0,1,.308-.566.2146.2146,0,0,0,.041-.062,10.70977,10.70977,0,0,1,8.359-5.239,21.19209,21.19209,0,0,0-6.753,4.765,22.37376,22.37376,0,0,0-1.843,2.234c-.298.422-.586.854-.843,1.286a1.28264,1.28264,0,0,0,.01,1.328,21.014,21.014,0,0,0,16.56,10.025.74742.74742,0,0,1-.102.073c-.164.113-.329.226-.494.318-.031.021-.062.031-.093.052a3.93934,3.93934,0,0,1-.412.236c-.134.072-.277.145-.411.206a3.77967,3.77967,0,0,1-.381.175,3.64,3.64,0,0,1-.384.157c-.174.068-.348.135-.521.194-.063.02-.124.041-.186.061-.247.072-.494.145-.741.195a1.17176,1.17176,0,0,1-.175.041c-.165.032-.318.063-.474.093-.113.021-.226.041-.339.052-.123.02-.247.031-.372.041a.46225.46225,0,0,1-.12195.011.23193.23193,0,0,1-.083.009.874.874,0,0,1-.164.011.40356.40356,0,0,1-.114.01c-.216.011-.422.02-.638.02-.226,0-.452-.009-.679-.02-.227-.021-.452-.041-.669-.071a10.81264,10.81264,0,0,1-8.379-15.46M20.1803,76.032c-.413-.052-.814-.113-1.22595-.175-.103-.02-.216-.031-.318-.052a.353.353,0,0,0-.093-.02c-.34-.062-.68-.124-1.019-.196.196-.165.391-.339.576-.514a13.42716,13.42716,0,0,0,3.767-6.238c.011-.041.022-.072.031-.113a7.70919,7.70919,0,0,0,.216-.978,30.31739,30.31739,0,0,1,15.636-19.731c.216-.103.432-.196.658-.309.216-.103.432-.216.638-.329.052-.031.102-.062.155-.093a13.31217,13.31217,0,0,0,6.71-10.632,2.75684,2.75684,0,0,0,.022-.299,2.60779,2.60779,0,0,0,.164.216c.072.093.144.185.215.278.165.206.34.412.515.608.206.226.433.453.659.678.258.247.526.485.803.711.195.164.401.319.607.463a13.31817,13.31817,0,0,0,4.014,1.987c.145.051.299.092.453.133.248.073.505.124.773.175.009.072.02.145.03095.217.03.195.051.381.071.576.051.433.093.875.124,1.307.041.7.072,1.421.072,2.141a30.40524,30.40524,0,0,1-30.436,30.436,29.66533,29.66533,0,0,1-3.818-.247m48.129-31.855c.013.042.027.085.04.127a.69414.69414,0,0,0,.022.074,30.65279,30.65279,0,0,1,1.111,5.479v.041a32.12466,32.12466,0,0,1,.175,3.284c0,.751-.031,1.513-.082,2.275a30.67756,30.67756,0,0,1-.772,4.92c-.155.637-.329,1.276-.525,1.904-.113.329-.216.648-.33.968-.062.195-.134.39-.225.648a31.10249,31.10249,0,0,1-1.442,3.232v.01c-.217.422-.442.823-.68,1.225-.298.524-.607,1.029-.947,1.544-.082.134-.175.267-.266.401-.022.03-.042.062-.074.103-.03.041-.06.092-.091.144-.041.051-.083.103-.124.164-.546.773-1.123,1.514-1.719,2.224-.082.102-.175.195-.257.299l-.186.216c-.319.349-.637.689-.958,1.018l-.483.485a.18866.18866,0,0,0-.02.02c-.33.309-.679.638-1.009.937-.144.123-.288.247-.422.37-.246.216-.493.423-.761.638-.021,0-.031.01-.041.032-.135.102-.258.205-.393.297-.174.145-.359.279-.544.422-.186.134-.38105.268-.566.402-.278.185-.556.381-.85395.577-.269.184-.556.359-.91705.576-.24695.154-.51495.309-.72095.432-.03.01-.062.031-.092.042v.009c-.288.155-.576.32-.865.463l-.35.176c-.143.082-.288.154-.442.227-.269.133-.546.256-.855.401-.05005.021-.103.041-.20606.082-.288.134-.576.257-.853.37-.33.124-.659.258-.999.371l-.113.041a3.97478,3.97478,0,0,1-.381.134c-.85505.299-1.70905.546-2.583.762-.01,0-.103.02-.114.02-.556.145-1.112.257-1.709.37-.216.032-.442.073-.678.114-.258.042-.505.072-.803.113q-.9255.1245-1.884.186c-.442.031-.895.051-1.338.061-.514.011-1.009.011-1.534,0-.257,0-.505-.01-.792-.03-.247-.011-.484-.022-.752-.052-.216-.011-.431-.031-.658-.052-.278-.03-.556-.051-.824-.093-.339-.041-.679-.091-1.03-.143-.39-.062-.782-.134-1.141-.206l-.515-.103c-.185-.042-.361-.083-.577-.133-.164-.042-.329-.083-.504-.124l-1.461-.422c-.124-.041-.248-.082-.381-.123-.257-.083-.514-.176-.772-.269a2.58062,2.58062,0,0,1-.35-.123c-.484-.175-.958-.36-1.422-.566-.019-.01-.05-.021-.071-.031-.011,0-.02,0-.02-.01-.577-.248-1.142-.515-1.699-.792-.278-.145-.555-.289-.83405-.444-.174-.092-.339-.184-.514-.288-.37-.206-.741-.432-1.101-.658-.062-.041-.124-.072-.176-.113.381.009.762.02,1.143.02.246,0,.491-.014.737-.019a32.64287,32.64287,0,0,0,4.215-.361c.637-.096,1.269-.207,1.894-.341a30.7962,30.7962,0,0,0,3.889-1.081,31.552,31.552,0,0,0,5.312-2.377,30.59427,30.59427,0,0,0,2.974-1.863,32.57883,32.57883,0,0,0,3.109-2.48c.329-.299.658-.608.968-.916a32.58875,32.58875,0,0,0,5.002-6.238q.708-1.1415,1.327-2.346A33.199,33.199,0,0,0,57.0083,45.843c0-.782-.032-1.564-.083-2.316-.04095-.504-.082-.988-.134-1.492a.85783.85783,0,0,1-.021-.165c.247,0,.495-.01.742-.021.391-.02.782-.061,1.163-.113.195-.03.39106-.062.58606-.103a7.07358,7.07358,0,0,0,.813-.174c.134-.032.269-.073.391-.104.206-.061.402-.123.597-.184l.011-.011s0,.011.01,0c.042-.01.083-.031.124-.041.153-.052.318-.114.483-.175.144-.062.299-.124.443-.186a.38849.38849,0,0,1,.092-.041c.186-.082.361-.165.536-.257.009,0,.009-.01.009-.01a5.879,5.879,0,0,0,.526-.268c.011,0,.011,0,.011-.011a.00883.00883,0,0,0,.009-.009c.134-.073.27795-.155.41094-.238.04206-.02.073-.041.11506-.061.154-.103.319-.206.472-.309a.68668.68668,0,0,1,.093-.072c.319-.227.628-.463.937-.71,0,0,0-.011.01-.011.155-.123.298-.267.454-.401q.73947,1.329,1.358,2.718c.205.463.401.926.566,1.399q.315.84149.577,1.7m.552-9.917a13.24134,13.24134,0,0,0,1.307-5.781c0-.184-.022-.364-.029-.548h8.587a18.55164,18.55164,0,0,1-9.865,6.329m.926-8.902a13.394,13.394,0,0,0-4.057-6.839,18.25672,18.25672,0,0,1,13,6.839Z"/>
        <path class="cls-1" d="M24.51227,9.487a4.5145,4.5145,0,1,0-4.514,4.514,4.52064,4.52064,0,0,0,4.514-4.514m-6.97,0a2.45548,2.45548,0,1,1,2.456,2.455,2.45908,2.45908,0,0,1-2.456-2.455"/>
        <path class="cls-2" d="M78.73077,25.358H69.78772a13.39353,13.39353,0,0,0-4.05695-6.839,18.25486,18.25486,0,0,1,13,6.839"/>
        <path class="cls-2" d="M68.86169,34.26039a13.25579,13.25579,0,0,0,1.307-5.781c0-.185-.022-.365-.03-.548h8.588a18.56147,18.56147,0,0,1-9.865,6.329"/>
        <path class="cls-2" d="M19.99835,2.0586a7.43637,7.43637,0,0,0-7.429,7.428c0,2.812,3.822,9.48,7.429,14.833,3.607-5.355,7.428-12.024,7.428-14.833a7.43619,7.43619,0,0,0-7.428-7.428m0,11.942a4.514,4.514,0,1,1,4.514-4.514,4.51936,4.51936,0,0,1-4.514,4.514"/>
      </g>
    </g>
  </g>
</svg>
