<?xml version="1.0" encoding="UTF-8" standalone="no"?>
<!DOCTYPE svg PUBLIC "-//W3C//DTD SVG 1.1//EN" "http://www.w3.org/Graphics/SVG/1.1/DTD/svg11.dtd">
<svg width="100%" height="100%" viewBox="0 0 426 106" version="1.1" xmlns="http://www.w3.org/2000/svg" xmlns:xlink="http://www.w3.org/1999/xlink" xml:space="preserve" xmlns:serif="http://www.serif.com/" style="fill-rule:evenodd;clip-rule:evenodd;stroke-linejoin:round;stroke-miterlimit:2;">
    <g>
        <rect x="0" y="0" width="425.2" height="105.9" style="fill:rgb(1,79,155);fill-rule:nonzero;"/>
        <g transform="matrix(1.27257,0,0,1.27257,-47.6597,-49.2782)">
            <g transform="matrix(11,0,0,11,168.769,77.3232)">
                <path d="M0.573,-0L0.329,-0.647L0.298,-0.647L0.035,-0L0.082,-0L0.162,-0.203L0.446,-0.203L0.521,-0L0.573,-0ZM0.434,-0.238L0.176,-0.238L0.311,-0.579L0.434,-0.238Z" style="fill:white;fill-rule:nonzero;"/>
            </g>
            <g transform="matrix(11,0,0,11,175.457,77.3232)">
                <path d="M0.347,-0.122C0.347,-0.219 0.266,-0.24 0.193,-0.262C0.137,-0.279 0.088,-0.295 0.088,-0.346C0.088,-0.412 0.141,-0.434 0.201,-0.434C0.256,-0.434 0.28,-0.42 0.324,-0.401L0.339,-0.437C0.284,-0.456 0.249,-0.467 0.21,-0.467C0.117,-0.467 0.044,-0.433 0.044,-0.343C0.044,-0.267 0.115,-0.242 0.184,-0.221C0.246,-0.202 0.303,-0.185 0.303,-0.121C0.303,-0.056 0.259,-0.023 0.196,-0.023C0.139,-0.023 0.118,-0.029 0.06,-0.054L0.045,-0.018C0.085,0.002 0.139,0.01 0.192,0.01C0.278,0.01 0.347,-0.035 0.347,-0.122Z" style="fill:white;fill-rule:nonzero;"/>
            </g>
            <g transform="matrix(11,0,0,11,179.813,77.3232)">
                <path d="M0.347,-0.122C0.347,-0.219 0.266,-0.24 0.193,-0.262C0.137,-0.279 0.088,-0.295 0.088,-0.346C0.088,-0.412 0.141,-0.434 0.201,-0.434C0.256,-0.434 0.28,-0.42 0.324,-0.401L0.339,-0.437C0.284,-0.456 0.249,-0.467 0.21,-0.467C0.117,-0.467 0.044,-0.433 0.044,-0.343C0.044,-0.267 0.115,-0.242 0.184,-0.221C0.246,-0.202 0.303,-0.185 0.303,-0.121C0.303,-0.056 0.259,-0.023 0.196,-0.023C0.139,-0.023 0.118,-0.029 0.06,-0.054L0.045,-0.018C0.085,0.002 0.139,0.01 0.192,0.01C0.278,0.01 0.347,-0.035 0.347,-0.122Z" style="fill:white;fill-rule:nonzero;"/>
            </g>
            <g transform="matrix(11,0,0,11,184.169,77.3232)">
                <path d="M0.428,-0.231C0.428,-0.362 0.385,-0.467 0.239,-0.467C0.093,-0.467 0.049,-0.357 0.049,-0.231C0.049,-0.098 0.093,0.01 0.239,0.01C0.385,0.01 0.428,-0.098 0.428,-0.231ZM0.384,-0.231C0.384,-0.119 0.36,-0.023 0.239,-0.023C0.122,-0.023 0.093,-0.119 0.093,-0.231C0.093,-0.343 0.13,-0.434 0.239,-0.434C0.355,-0.434 0.384,-0.343 0.384,-0.231Z" style="fill:white;fill-rule:nonzero;"/>
            </g>
            <g transform="matrix(11,0,0,11,189.416,77.3232)">
                <path d="M0.375,-0.019L0.36,-0.055C0.321,-0.035 0.271,-0.023 0.24,-0.023C0.124,-0.023 0.093,-0.118 0.093,-0.225C0.093,-0.342 0.127,-0.434 0.241,-0.434C0.275,-0.434 0.324,-0.419 0.358,-0.402L0.373,-0.438C0.34,-0.451 0.283,-0.467 0.242,-0.467C0.103,-0.467 0.049,-0.373 0.049,-0.225C0.049,-0.085 0.104,0.01 0.239,0.01C0.274,0.01 0.34,-0.002 0.375,-0.019Z" style="fill:white;fill-rule:nonzero;"/>
            </g>
            <g transform="matrix(11,0,0,11,193.981,77.3232)">
                <path d="M0.118,-0.579L0.118,-0.647L0.07,-0.647L0.07,-0.579L0.118,-0.579ZM0.115,-0L0.115,-0.457L0.074,-0.457L0.074,-0L0.115,-0Z" style="fill:white;fill-rule:nonzero;"/>
            </g>
            <g transform="matrix(11,0,0,11,196.049,77.3232)">
                <path d="M0.391,-0C0.385,-0.058 0.379,-0.104 0.379,-0.14L0.379,-0.32C0.379,-0.42 0.322,-0.467 0.232,-0.467C0.164,-0.467 0.118,-0.45 0.069,-0.431L0.084,-0.395C0.127,-0.416 0.17,-0.434 0.233,-0.434C0.309,-0.434 0.338,-0.39 0.338,-0.315L0.338,-0.273L0.291,-0.273C0.097,-0.273 0.049,-0.213 0.049,-0.12C0.049,-0.028 0.129,0.01 0.209,0.01C0.272,0.01 0.319,-0.02 0.342,-0.058C0.344,-0.042 0.357,-0.011 0.358,-0L0.391,-0ZM0.339,-0.096C0.317,-0.052 0.268,-0.023 0.209,-0.023C0.133,-0.023 0.093,-0.063 0.093,-0.121C0.093,-0.205 0.143,-0.239 0.305,-0.239L0.339,-0.239L0.339,-0.096Z" style="fill:white;fill-rule:nonzero;"/>
            </g>
            <g transform="matrix(11,0,0,11,201.076,77.3232)">
                <path d="M0.248,0.005C0.16,-0.01 0.125,-0.045 0.125,-0.11L0.125,-0.424L0.229,-0.424L0.229,-0.457L0.125,-0.457L0.125,-0.571L0.084,-0.571L0.084,-0.457L0.015,-0.457L0.015,-0.424L0.084,-0.424L0.084,-0.11C0.084,-0.024 0.135,0.024 0.237,0.043L0.248,0.005Z" style="fill:white;fill-rule:nonzero;"/>
            </g>
            <g transform="matrix(11,0,0,11,203.969,77.3232)">
                <path d="M0.118,-0.579L0.118,-0.647L0.07,-0.647L0.07,-0.579L0.118,-0.579ZM0.115,-0L0.115,-0.457L0.074,-0.457L0.074,-0L0.115,-0Z" style="fill:white;fill-rule:nonzero;"/>
            </g>
            <g transform="matrix(11,0,0,11,206.037,77.3232)">
                <path d="M0.428,-0.231C0.428,-0.362 0.385,-0.467 0.239,-0.467C0.093,-0.467 0.049,-0.357 0.049,-0.231C0.049,-0.098 0.093,0.01 0.239,0.01C0.385,0.01 0.428,-0.098 0.428,-0.231ZM0.384,-0.231C0.384,-0.119 0.36,-0.023 0.239,-0.023C0.122,-0.023 0.093,-0.119 0.093,-0.231C0.093,-0.343 0.13,-0.434 0.239,-0.434C0.355,-0.434 0.384,-0.343 0.384,-0.231Z" style="fill:white;fill-rule:nonzero;"/>
            </g>
            <g transform="matrix(11,0,0,11,211.284,77.3232)">
                <path d="M0.397,-0L0.397,-0.288C0.397,-0.393 0.36,-0.467 0.246,-0.467C0.164,-0.467 0.127,-0.407 0.11,-0.385L0.097,-0.457L0.064,-0.457C0.066,-0.419 0.072,-0.398 0.072,-0.36L0.072,-0L0.113,-0L0.113,-0.332C0.127,-0.373 0.174,-0.434 0.24,-0.434C0.34,-0.434 0.356,-0.363 0.356,-0.28L0.356,-0L0.397,-0Z" style="fill:white;fill-rule:nonzero;"/>
            </g>
            <g transform="matrix(11,0,0,11,218.973,77.3232)">
                <path d="M0.428,-0.231C0.428,-0.362 0.385,-0.467 0.239,-0.467C0.093,-0.467 0.049,-0.357 0.049,-0.231C0.049,-0.098 0.093,0.01 0.239,0.01C0.385,0.01 0.428,-0.098 0.428,-0.231ZM0.384,-0.231C0.384,-0.119 0.36,-0.023 0.239,-0.023C0.122,-0.023 0.093,-0.119 0.093,-0.231C0.093,-0.343 0.13,-0.434 0.239,-0.434C0.355,-0.434 0.384,-0.343 0.384,-0.231Z" style="fill:white;fill-rule:nonzero;"/>
            </g>
            <g transform="matrix(11,0,0,11,224.22,77.3232)">
                <path d="M0.255,-0.636L0.245,-0.672C0.144,-0.664 0.091,-0.611 0.091,-0.521L0.091,-0.457L0.015,-0.457L0.015,-0.424L0.091,-0.424L0.091,-0L0.132,-0L0.132,-0.424L0.226,-0.424L0.226,-0.457L0.132,-0.457L0.132,-0.524C0.132,-0.583 0.15,-0.626 0.255,-0.636L0.255,-0.636Z" style="fill:white;fill-rule:nonzero;"/>
            </g>
            <g transform="matrix(11,0,0,11,229.335,77.3232)">
                <path d="M0.511,-0.039L0.511,-0.306L0.326,-0.306L0.326,-0.269L0.469,-0.269L0.469,-0.068C0.428,-0.046 0.375,-0.021 0.326,-0.021C0.152,-0.021 0.113,-0.168 0.113,-0.324C0.113,-0.512 0.175,-0.62 0.333,-0.62C0.377,-0.62 0.418,-0.609 0.457,-0.592L0.475,-0.634C0.429,-0.646 0.377,-0.657 0.332,-0.657C0.137,-0.657 0.065,-0.523 0.065,-0.324C0.065,-0.149 0.118,0.016 0.323,0.016C0.395,0.016 0.444,-0.007 0.511,-0.039Z" style="fill:rgb(251,202,48);fill-rule:nonzero;"/>
            </g>
            <g transform="matrix(11,0,0,11,235.671,77.3232)">
                <path d="M0.409,-0.219C0.409,-0.355 0.377,-0.467 0.229,-0.467C0.09,-0.467 0.049,-0.33 0.049,-0.224C0.049,-0.097 0.098,0.01 0.231,0.01C0.285,0.01 0.34,-0.002 0.392,-0.027L0.38,-0.064C0.333,-0.039 0.292,-0.023 0.239,-0.023C0.127,-0.023 0.094,-0.11 0.094,-0.219L0.409,-0.219ZM0.369,-0.252L0.093,-0.252C0.099,-0.362 0.141,-0.434 0.229,-0.434C0.329,-0.434 0.369,-0.372 0.369,-0.252Z" style="fill:rgb(251,202,48);fill-rule:nonzero;"/>
            </g>
            <g transform="matrix(11,0,0,11,240.742,77.3232)">
                <path d="M0.428,-0.231C0.428,-0.362 0.385,-0.467 0.239,-0.467C0.093,-0.467 0.049,-0.357 0.049,-0.231C0.049,-0.098 0.093,0.01 0.239,0.01C0.385,0.01 0.428,-0.098 0.428,-0.231ZM0.384,-0.231C0.384,-0.119 0.36,-0.023 0.239,-0.023C0.122,-0.023 0.093,-0.119 0.093,-0.231C0.093,-0.343 0.13,-0.434 0.239,-0.434C0.355,-0.434 0.384,-0.343 0.384,-0.231Z" style="fill:rgb(251,202,48);fill-rule:nonzero;"/>
            </g>
            <g transform="matrix(11,0,0,11,245.989,77.3232)">
                <path d="M0.439,0.068C0.439,0.017 0.403,-0.03 0.251,-0.046C0.134,-0.059 0.115,-0.074 0.115,-0.103C0.115,-0.122 0.127,-0.137 0.141,-0.152C0.157,-0.141 0.205,-0.129 0.235,-0.129C0.362,-0.129 0.407,-0.215 0.407,-0.303C0.407,-0.361 0.376,-0.409 0.349,-0.428L0.419,-0.428L0.434,-0.464C0.386,-0.462 0.346,-0.457 0.309,-0.454C0.293,-0.462 0.267,-0.467 0.233,-0.467C0.093,-0.467 0.062,-0.353 0.062,-0.3C0.062,-0.223 0.1,-0.188 0.115,-0.171C0.096,-0.152 0.075,-0.133 0.075,-0.1C0.075,-0.063 0.107,-0.041 0.139,-0.028C0.1,-0.019 0.039,0.014 0.039,0.072C0.039,0.149 0.093,0.197 0.241,0.197C0.35,0.197 0.439,0.155 0.439,0.068ZM0.363,-0.301C0.363,-0.225 0.33,-0.162 0.236,-0.162C0.142,-0.162 0.106,-0.225 0.106,-0.298C0.106,-0.363 0.137,-0.434 0.235,-0.434C0.317,-0.434 0.363,-0.386 0.363,-0.301ZM0.395,0.068C0.395,0.124 0.348,0.164 0.241,0.164C0.123,0.164 0.083,0.125 0.083,0.072C0.083,0.037 0.114,-0.003 0.178,-0.016C0.329,-0.003 0.395,0.011 0.395,0.068Z" style="fill:rgb(251,202,48);fill-rule:nonzero;"/>
            </g>
            <g transform="matrix(11,0,0,11,251.17,77.3232)">
                <path d="M0.307,-0.445C0.278,-0.462 0.253,-0.467 0.225,-0.467C0.162,-0.467 0.129,-0.407 0.11,-0.371L0.097,-0.457L0.064,-0.457C0.066,-0.434 0.072,-0.4 0.072,-0.355L0.072,-0L0.113,-0L0.113,-0.32C0.128,-0.35 0.159,-0.434 0.218,-0.434C0.24,-0.434 0.265,-0.429 0.292,-0.409L0.307,-0.445Z" style="fill:rgb(251,202,48);fill-rule:nonzero;"/>
            </g>
            <g transform="matrix(11,0,0,11,254.69,77.3232)">
                <path d="M0.391,-0C0.385,-0.058 0.379,-0.104 0.379,-0.14L0.379,-0.32C0.379,-0.42 0.322,-0.467 0.232,-0.467C0.164,-0.467 0.118,-0.45 0.069,-0.431L0.084,-0.395C0.127,-0.416 0.17,-0.434 0.233,-0.434C0.309,-0.434 0.338,-0.39 0.338,-0.315L0.338,-0.273L0.291,-0.273C0.097,-0.273 0.049,-0.213 0.049,-0.12C0.049,-0.028 0.129,0.01 0.209,0.01C0.272,0.01 0.319,-0.02 0.342,-0.058C0.344,-0.042 0.357,-0.011 0.358,-0L0.391,-0ZM0.339,-0.096C0.317,-0.052 0.268,-0.023 0.209,-0.023C0.133,-0.023 0.093,-0.063 0.093,-0.121C0.093,-0.205 0.143,-0.239 0.305,-0.239L0.339,-0.239L0.339,-0.096Z" style="fill:rgb(251,202,48);fill-rule:nonzero;"/>
            </g>
            <g transform="matrix(11,0,0,11,259.717,77.3232)">
                <path d="M0.422,-0.226C0.422,-0.355 0.38,-0.467 0.247,-0.467C0.18,-0.467 0.135,-0.422 0.112,-0.384L0.097,-0.457L0.064,-0.457C0.07,-0.41 0.072,-0.369 0.072,-0.322L0.072,0.18L0.113,0.18L0.113,-0.056C0.137,-0.023 0.183,0.01 0.25,0.01C0.365,0.01 0.422,-0.098 0.422,-0.226L0.422,-0.226ZM0.378,-0.228C0.378,-0.088 0.323,-0.023 0.244,-0.023C0.163,-0.023 0.134,-0.072 0.112,-0.097L0.112,-0.331C0.126,-0.377 0.176,-0.434 0.239,-0.434C0.345,-0.434 0.378,-0.344 0.378,-0.228L0.378,-0.228Z" style="fill:rgb(251,202,48);fill-rule:nonzero;"/>
            </g>
            <g transform="matrix(11,0,0,11,264.898,77.3232)">
                <path d="M0.397,-0L0.397,-0.296C0.397,-0.383 0.365,-0.467 0.248,-0.467C0.187,-0.467 0.134,-0.425 0.113,-0.385L0.113,-0.657L0.072,-0.657L0.072,-0L0.112,-0L0.112,-0.331C0.121,-0.366 0.17,-0.434 0.241,-0.434C0.336,-0.434 0.356,-0.369 0.356,-0.274L0.356,-0L0.397,-0Z" style="fill:rgb(251,202,48);fill-rule:nonzero;"/>
            </g>
            <g transform="matrix(11,0,0,11,270.057,77.3232)">
                <path d="M0.118,-0.579L0.118,-0.647L0.07,-0.647L0.07,-0.579L0.118,-0.579ZM0.115,-0L0.115,-0.457L0.074,-0.457L0.074,-0L0.115,-0Z" style="fill:rgb(251,202,48);fill-rule:nonzero;"/>
            </g>
            <g transform="matrix(11,0,0,11,272.125,77.3232)">
                <path d="M0.375,-0.019L0.36,-0.055C0.321,-0.035 0.271,-0.023 0.24,-0.023C0.124,-0.023 0.093,-0.118 0.093,-0.225C0.093,-0.342 0.127,-0.434 0.241,-0.434C0.275,-0.434 0.324,-0.419 0.358,-0.402L0.373,-0.438C0.34,-0.451 0.283,-0.467 0.242,-0.467C0.103,-0.467 0.049,-0.373 0.049,-0.225C0.049,-0.085 0.104,0.01 0.239,0.01C0.274,0.01 0.34,-0.002 0.375,-0.019Z" style="fill:rgb(251,202,48);fill-rule:nonzero;"/>
            </g>
            <g transform="matrix(11,0,0,11,279.22,77.3232)">
                <rect x="0.088" y="-0.647" width="0.046" height="0.647" style="fill:rgb(251,202,48);fill-rule:nonzero;"/>
            </g>
            <g transform="matrix(11,0,0,11,281.662,77.3232)">
                <path d="M0.397,-0L0.397,-0.288C0.397,-0.393 0.36,-0.467 0.246,-0.467C0.164,-0.467 0.127,-0.407 0.11,-0.385L0.097,-0.457L0.064,-0.457C0.066,-0.419 0.072,-0.398 0.072,-0.36L0.072,-0L0.113,-0L0.113,-0.332C0.127,-0.373 0.174,-0.434 0.24,-0.434C0.34,-0.434 0.356,-0.363 0.356,-0.28L0.356,-0L0.397,-0Z" style="fill:rgb(251,202,48);fill-rule:nonzero;"/>
            </g>
            <g transform="matrix(11,0,0,11,286.821,77.3232)">
                <path d="M0.255,-0.636L0.245,-0.672C0.144,-0.664 0.091,-0.611 0.091,-0.521L0.091,-0.457L0.015,-0.457L0.015,-0.424L0.091,-0.424L0.091,-0L0.132,-0L0.132,-0.424L0.226,-0.424L0.226,-0.457L0.132,-0.457L0.132,-0.524C0.132,-0.583 0.15,-0.626 0.255,-0.636L0.255,-0.636Z" style="fill:rgb(251,202,48);fill-rule:nonzero;"/>
            </g>
            <g transform="matrix(11,0,0,11,289.406,77.3232)">
                <path d="M0.428,-0.231C0.428,-0.362 0.385,-0.467 0.239,-0.467C0.093,-0.467 0.049,-0.357 0.049,-0.231C0.049,-0.098 0.093,0.01 0.239,0.01C0.385,0.01 0.428,-0.098 0.428,-0.231ZM0.384,-0.231C0.384,-0.119 0.36,-0.023 0.239,-0.023C0.122,-0.023 0.093,-0.119 0.093,-0.231C0.093,-0.343 0.13,-0.434 0.239,-0.434C0.355,-0.434 0.384,-0.343 0.384,-0.231Z" style="fill:rgb(251,202,48);fill-rule:nonzero;"/>
            </g>
            <g transform="matrix(11,0,0,11,294.653,77.3232)">
                <path d="M0.307,-0.445C0.278,-0.462 0.253,-0.467 0.225,-0.467C0.162,-0.467 0.129,-0.407 0.11,-0.371L0.097,-0.457L0.064,-0.457C0.066,-0.434 0.072,-0.4 0.072,-0.355L0.072,-0L0.113,-0L0.113,-0.32C0.128,-0.35 0.159,-0.434 0.218,-0.434C0.24,-0.434 0.265,-0.429 0.292,-0.409L0.307,-0.445Z" style="fill:rgb(251,202,48);fill-rule:nonzero;"/>
            </g>
            <g transform="matrix(11,0,0,11,298.173,77.3232)">
                <path d="M0.678,-0L0.678,-0.292C0.678,-0.414 0.624,-0.467 0.523,-0.467C0.448,-0.467 0.407,-0.408 0.381,-0.366C0.365,-0.418 0.326,-0.467 0.244,-0.467C0.171,-0.467 0.132,-0.416 0.111,-0.385L0.097,-0.457L0.064,-0.457C0.067,-0.423 0.072,-0.39 0.072,-0.352L0.072,-0L0.113,-0L0.113,-0.332C0.129,-0.378 0.178,-0.434 0.238,-0.434C0.314,-0.434 0.352,-0.377 0.352,-0.29L0.352,-0L0.393,-0L0.393,-0.327C0.41,-0.374 0.459,-0.434 0.519,-0.434C0.623,-0.434 0.637,-0.358 0.637,-0.29L0.637,-0L0.678,-0Z" style="fill:rgb(251,202,48);fill-rule:nonzero;"/>
            </g>
            <g transform="matrix(11,0,0,11,306.423,77.3232)">
                <path d="M0.391,-0C0.385,-0.058 0.379,-0.104 0.379,-0.14L0.379,-0.32C0.379,-0.42 0.322,-0.467 0.232,-0.467C0.164,-0.467 0.118,-0.45 0.069,-0.431L0.084,-0.395C0.127,-0.416 0.17,-0.434 0.233,-0.434C0.309,-0.434 0.338,-0.39 0.338,-0.315L0.338,-0.273L0.291,-0.273C0.097,-0.273 0.049,-0.213 0.049,-0.12C0.049,-0.028 0.129,0.01 0.209,0.01C0.272,0.01 0.319,-0.02 0.342,-0.058C0.344,-0.042 0.357,-0.011 0.358,-0L0.391,-0ZM0.339,-0.096C0.317,-0.052 0.268,-0.023 0.209,-0.023C0.133,-0.023 0.093,-0.063 0.093,-0.121C0.093,-0.205 0.143,-0.239 0.305,-0.239L0.339,-0.239L0.339,-0.096Z" style="fill:rgb(251,202,48);fill-rule:nonzero;"/>
            </g>
            <g transform="matrix(11,0,0,11,311.45,77.3232)">
                <path d="M0.248,0.005C0.16,-0.01 0.125,-0.045 0.125,-0.11L0.125,-0.424L0.229,-0.424L0.229,-0.457L0.125,-0.457L0.125,-0.571L0.084,-0.571L0.084,-0.457L0.015,-0.457L0.015,-0.424L0.084,-0.424L0.084,-0.11C0.084,-0.024 0.135,0.024 0.237,0.043L0.248,0.005Z" style="fill:rgb(251,202,48);fill-rule:nonzero;"/>
            </g>
            <g transform="matrix(11,0,0,11,314.343,77.3232)">
                <path d="M0.118,-0.579L0.118,-0.647L0.07,-0.647L0.07,-0.579L0.118,-0.579ZM0.115,-0L0.115,-0.457L0.074,-0.457L0.074,-0L0.115,-0Z" style="fill:rgb(251,202,48);fill-rule:nonzero;"/>
            </g>
            <g transform="matrix(11,0,0,11,316.411,77.3232)">
                <path d="M0.428,-0.231C0.428,-0.362 0.385,-0.467 0.239,-0.467C0.093,-0.467 0.049,-0.357 0.049,-0.231C0.049,-0.098 0.093,0.01 0.239,0.01C0.385,0.01 0.428,-0.098 0.428,-0.231ZM0.384,-0.231C0.384,-0.119 0.36,-0.023 0.239,-0.023C0.122,-0.023 0.093,-0.119 0.093,-0.231C0.093,-0.343 0.13,-0.434 0.239,-0.434C0.355,-0.434 0.384,-0.343 0.384,-0.231Z" style="fill:rgb(251,202,48);fill-rule:nonzero;"/>
            </g>
            <g transform="matrix(11,0,0,11,321.658,77.3232)">
                <path d="M0.397,-0L0.397,-0.288C0.397,-0.393 0.36,-0.467 0.246,-0.467C0.164,-0.467 0.127,-0.407 0.11,-0.385L0.097,-0.457L0.064,-0.457C0.066,-0.419 0.072,-0.398 0.072,-0.36L0.072,-0L0.113,-0L0.113,-0.332C0.127,-0.373 0.174,-0.434 0.24,-0.434C0.34,-0.434 0.356,-0.363 0.356,-0.28L0.356,-0L0.397,-0Z" style="fill:rgb(251,202,48);fill-rule:nonzero;"/>
            </g>
            <g transform="matrix(11,0,0,11,168.769,88.3232)">
                <path d="M0.455,-0L0.455,-0.04L0.146,-0.04L0.146,-0.647L0.1,-0.647L0.1,-0L0.455,-0Z" style="fill:white;fill-rule:nonzero;"/>
            </g>
            <g transform="matrix(11,0,0,11,173.873,88.3232)">
                <path d="M0.391,-0C0.385,-0.058 0.379,-0.104 0.379,-0.14L0.379,-0.32C0.379,-0.42 0.322,-0.467 0.232,-0.467C0.164,-0.467 0.118,-0.45 0.069,-0.431L0.084,-0.395C0.127,-0.416 0.17,-0.434 0.233,-0.434C0.309,-0.434 0.338,-0.39 0.338,-0.315L0.338,-0.273L0.291,-0.273C0.097,-0.273 0.049,-0.213 0.049,-0.12C0.049,-0.028 0.129,0.01 0.209,0.01C0.272,0.01 0.319,-0.02 0.342,-0.058C0.344,-0.042 0.357,-0.011 0.358,-0L0.391,-0ZM0.339,-0.096C0.317,-0.052 0.268,-0.023 0.209,-0.023C0.133,-0.023 0.093,-0.063 0.093,-0.121C0.093,-0.205 0.143,-0.239 0.305,-0.239L0.339,-0.239L0.339,-0.096Z" style="fill:white;fill-rule:nonzero;"/>
            </g>
            <g transform="matrix(11,0,0,11,178.9,88.3232)">
                <path d="M0.422,-0.231C0.422,-0.358 0.375,-0.467 0.25,-0.467C0.182,-0.467 0.132,-0.419 0.113,-0.385L0.113,-0.657L0.072,-0.657L0.072,-0.14C0.072,-0.082 0.07,-0.058 0.064,-0L0.097,-0L0.11,-0.058C0.135,-0.022 0.19,0.01 0.245,0.01C0.375,0.01 0.422,-0.1 0.422,-0.231L0.422,-0.231ZM0.378,-0.229C0.378,-0.108 0.341,-0.023 0.235,-0.023C0.185,-0.023 0.141,-0.05 0.111,-0.099L0.111,-0.331C0.12,-0.354 0.159,-0.434 0.247,-0.434C0.324,-0.434 0.378,-0.373 0.378,-0.229Z" style="fill:white;fill-rule:nonzero;"/>
            </g>
            <g transform="matrix(11,0,0,11,184.081,88.3232)">
                <path d="M0.428,-0.231C0.428,-0.362 0.385,-0.467 0.239,-0.467C0.093,-0.467 0.049,-0.357 0.049,-0.231C0.049,-0.098 0.093,0.01 0.239,0.01C0.385,0.01 0.428,-0.098 0.428,-0.231ZM0.384,-0.231C0.384,-0.119 0.36,-0.023 0.239,-0.023C0.122,-0.023 0.093,-0.119 0.093,-0.231C0.093,-0.343 0.13,-0.434 0.239,-0.434C0.355,-0.434 0.384,-0.343 0.384,-0.231Z" style="fill:white;fill-rule:nonzero;"/>
            </g>
            <g transform="matrix(11,0,0,11,189.328,88.3232)">
                <path d="M0.307,-0.445C0.278,-0.462 0.253,-0.467 0.225,-0.467C0.162,-0.467 0.129,-0.407 0.11,-0.371L0.097,-0.457L0.064,-0.457C0.066,-0.434 0.072,-0.4 0.072,-0.355L0.072,-0L0.113,-0L0.113,-0.32C0.128,-0.35 0.159,-0.434 0.218,-0.434C0.24,-0.434 0.265,-0.429 0.292,-0.409L0.307,-0.445Z" style="fill:white;fill-rule:nonzero;"/>
            </g>
            <g transform="matrix(11,0,0,11,192.848,88.3232)">
                <path d="M0.391,-0C0.385,-0.058 0.379,-0.104 0.379,-0.14L0.379,-0.32C0.379,-0.42 0.322,-0.467 0.232,-0.467C0.164,-0.467 0.118,-0.45 0.069,-0.431L0.084,-0.395C0.127,-0.416 0.17,-0.434 0.233,-0.434C0.309,-0.434 0.338,-0.39 0.338,-0.315L0.338,-0.273L0.291,-0.273C0.097,-0.273 0.049,-0.213 0.049,-0.12C0.049,-0.028 0.129,0.01 0.209,0.01C0.272,0.01 0.319,-0.02 0.342,-0.058C0.344,-0.042 0.357,-0.011 0.358,-0L0.391,-0ZM0.339,-0.096C0.317,-0.052 0.268,-0.023 0.209,-0.023C0.133,-0.023 0.093,-0.063 0.093,-0.121C0.093,-0.205 0.143,-0.239 0.305,-0.239L0.339,-0.239L0.339,-0.096Z" style="fill:white;fill-rule:nonzero;"/>
            </g>
            <g transform="matrix(11,0,0,11,197.875,88.3232)">
                <path d="M0.248,0.005C0.16,-0.01 0.125,-0.045 0.125,-0.11L0.125,-0.424L0.229,-0.424L0.229,-0.457L0.125,-0.457L0.125,-0.571L0.084,-0.571L0.084,-0.457L0.015,-0.457L0.015,-0.424L0.084,-0.424L0.084,-0.11C0.084,-0.024 0.135,0.024 0.237,0.043L0.248,0.005Z" style="fill:white;fill-rule:nonzero;"/>
            </g>
            <g transform="matrix(11,0,0,11,200.768,88.3232)">
                <path d="M0.428,-0.231C0.428,-0.362 0.385,-0.467 0.239,-0.467C0.093,-0.467 0.049,-0.357 0.049,-0.231C0.049,-0.098 0.093,0.01 0.239,0.01C0.385,0.01 0.428,-0.098 0.428,-0.231ZM0.384,-0.231C0.384,-0.119 0.36,-0.023 0.239,-0.023C0.122,-0.023 0.093,-0.119 0.093,-0.231C0.093,-0.343 0.13,-0.434 0.239,-0.434C0.355,-0.434 0.384,-0.343 0.384,-0.231Z" style="fill:white;fill-rule:nonzero;"/>
            </g>
            <g transform="matrix(11,0,0,11,206.015,88.3232)">
                <path d="M0.307,-0.445C0.278,-0.462 0.253,-0.467 0.225,-0.467C0.162,-0.467 0.129,-0.407 0.11,-0.371L0.097,-0.457L0.064,-0.457C0.066,-0.434 0.072,-0.4 0.072,-0.355L0.072,-0L0.113,-0L0.113,-0.32C0.128,-0.35 0.159,-0.434 0.218,-0.434C0.24,-0.434 0.265,-0.429 0.292,-0.409L0.307,-0.445Z" style="fill:white;fill-rule:nonzero;"/>
            </g>
            <g transform="matrix(11,0,0,11,209.535,88.3232)">
                <path d="M0.118,-0.579L0.118,-0.647L0.07,-0.647L0.07,-0.579L0.118,-0.579ZM0.115,-0L0.115,-0.457L0.074,-0.457L0.074,-0L0.115,-0Z" style="fill:white;fill-rule:nonzero;"/>
            </g>
            <g transform="matrix(11,0,0,11,211.603,88.3232)">
                <path d="M0.409,-0.219C0.409,-0.355 0.377,-0.467 0.229,-0.467C0.09,-0.467 0.049,-0.33 0.049,-0.224C0.049,-0.097 0.098,0.01 0.231,0.01C0.285,0.01 0.34,-0.002 0.392,-0.027L0.38,-0.064C0.333,-0.039 0.292,-0.023 0.239,-0.023C0.127,-0.023 0.094,-0.11 0.094,-0.219L0.409,-0.219ZM0.369,-0.252L0.093,-0.252C0.099,-0.362 0.141,-0.434 0.229,-0.434C0.329,-0.434 0.369,-0.372 0.369,-0.252Z" style="fill:white;fill-rule:nonzero;"/>
            </g>
            <g transform="matrix(11,0,0,11,216.674,88.3232)">
                <path d="M0.347,-0.122C0.347,-0.219 0.266,-0.24 0.193,-0.262C0.137,-0.279 0.088,-0.295 0.088,-0.346C0.088,-0.412 0.141,-0.434 0.201,-0.434C0.256,-0.434 0.28,-0.42 0.324,-0.401L0.339,-0.437C0.284,-0.456 0.249,-0.467 0.21,-0.467C0.117,-0.467 0.044,-0.433 0.044,-0.343C0.044,-0.267 0.115,-0.242 0.184,-0.221C0.246,-0.202 0.303,-0.185 0.303,-0.121C0.303,-0.056 0.259,-0.023 0.196,-0.023C0.139,-0.023 0.118,-0.029 0.06,-0.054L0.045,-0.018C0.085,0.002 0.139,0.01 0.192,0.01C0.278,0.01 0.347,-0.035 0.347,-0.122Z" style="fill:white;fill-rule:nonzero;"/>
            </g>
            <g transform="matrix(11,0,0,11,223.56,88.3232)">
                <path d="M0.118,-0.579L0.118,-0.647L0.07,-0.647L0.07,-0.579L0.118,-0.579ZM0.115,-0L0.115,-0.457L0.074,-0.457L0.074,-0L0.115,-0Z" style="fill:white;fill-rule:nonzero;"/>
            </g>
            <g transform="matrix(11,0,0,11,225.628,88.3232)">
                <path d="M0.397,-0L0.397,-0.288C0.397,-0.393 0.36,-0.467 0.246,-0.467C0.164,-0.467 0.127,-0.407 0.11,-0.385L0.097,-0.457L0.064,-0.457C0.066,-0.419 0.072,-0.398 0.072,-0.36L0.072,-0L0.113,-0L0.113,-0.332C0.127,-0.373 0.174,-0.434 0.24,-0.434C0.34,-0.434 0.356,-0.363 0.356,-0.28L0.356,-0L0.397,-0Z" style="fill:white;fill-rule:nonzero;"/>
            </g>
            <g transform="matrix(11,0,0,11,233.317,88.3232)">
                <path d="M0.453,-0L0.453,-0.037L0.146,-0.037L0.146,-0.316L0.423,-0.316L0.423,-0.353L0.146,-0.353L0.146,-0.61L0.444,-0.61L0.444,-0.647L0.1,-0.647L0.1,-0L0.453,-0Z" style="fill:white;fill-rule:nonzero;"/>
            </g>
            <g transform="matrix(11,0,0,11,238.96,88.3232)">
                <path d="M0.398,-0C0.396,-0.038 0.39,-0.059 0.39,-0.097L0.39,-0.457L0.349,-0.457L0.349,-0.125C0.335,-0.084 0.292,-0.023 0.226,-0.023C0.128,-0.023 0.113,-0.094 0.113,-0.177L0.113,-0.457L0.072,-0.457L0.072,-0.169C0.072,-0.064 0.106,0.01 0.215,0.01C0.304,0.01 0.335,-0.05 0.352,-0.072L0.365,-0L0.398,-0Z" style="fill:white;fill-rule:nonzero;"/>
            </g>
            <g transform="matrix(11,0,0,11,244.042,88.3232)">
                <path d="M0.307,-0.445C0.278,-0.462 0.253,-0.467 0.225,-0.467C0.162,-0.467 0.129,-0.407 0.11,-0.371L0.097,-0.457L0.064,-0.457C0.066,-0.434 0.072,-0.4 0.072,-0.355L0.072,-0L0.113,-0L0.113,-0.32C0.128,-0.35 0.159,-0.434 0.218,-0.434C0.24,-0.434 0.265,-0.429 0.292,-0.409L0.307,-0.445Z" style="fill:white;fill-rule:nonzero;"/>
            </g>
            <g transform="matrix(11,0,0,11,247.562,88.3232)">
                <path d="M0.428,-0.231C0.428,-0.362 0.385,-0.467 0.239,-0.467C0.093,-0.467 0.049,-0.357 0.049,-0.231C0.049,-0.098 0.093,0.01 0.239,0.01C0.385,0.01 0.428,-0.098 0.428,-0.231ZM0.384,-0.231C0.384,-0.119 0.36,-0.023 0.239,-0.023C0.122,-0.023 0.093,-0.119 0.093,-0.231C0.093,-0.343 0.13,-0.434 0.239,-0.434C0.355,-0.434 0.384,-0.343 0.384,-0.231Z" style="fill:white;fill-rule:nonzero;"/>
            </g>
            <g transform="matrix(11,0,0,11,252.809,88.3232)">
                <path d="M0.422,-0.226C0.422,-0.355 0.38,-0.467 0.247,-0.467C0.18,-0.467 0.135,-0.422 0.112,-0.384L0.097,-0.457L0.064,-0.457C0.07,-0.41 0.072,-0.369 0.072,-0.322L0.072,0.18L0.113,0.18L0.113,-0.056C0.137,-0.023 0.183,0.01 0.25,0.01C0.365,0.01 0.422,-0.098 0.422,-0.226L0.422,-0.226ZM0.378,-0.228C0.378,-0.088 0.323,-0.023 0.244,-0.023C0.163,-0.023 0.134,-0.072 0.112,-0.097L0.112,-0.331C0.126,-0.377 0.176,-0.434 0.239,-0.434C0.345,-0.434 0.378,-0.344 0.378,-0.228L0.378,-0.228Z" style="fill:white;fill-rule:nonzero;"/>
            </g>
            <g transform="matrix(11,0,0,11,257.99,88.3232)">
                <path d="M0.409,-0.219C0.409,-0.355 0.377,-0.467 0.229,-0.467C0.09,-0.467 0.049,-0.33 0.049,-0.224C0.049,-0.097 0.098,0.01 0.231,0.01C0.285,0.01 0.34,-0.002 0.392,-0.027L0.38,-0.064C0.333,-0.039 0.292,-0.023 0.239,-0.023C0.127,-0.023 0.094,-0.11 0.094,-0.219L0.409,-0.219ZM0.369,-0.252L0.093,-0.252C0.099,-0.362 0.141,-0.434 0.229,-0.434C0.329,-0.434 0.369,-0.372 0.369,-0.252Z" style="fill:white;fill-rule:nonzero;"/>
            </g>
        </g>
        <path d="M134.8,44.2C119.8,62.9 111.9,81.2 117.2,85C122.5,88.8 139.1,76.7 154.1,57.9C169.1,39.2 177,20.9 171.6,17.1C166.4,13.3 149.9,25.5 134.8,44.2ZM132.3,46.9C117.3,65.6 109.5,84 115,87.9C120.5,91.8 137.1,79.8 152.2,61C167.2,42.3 175,23.9 169.5,20C164,16.1 147.3,28.1 132.3,46.9Z" style="fill:rgb(253,197,32);"/>
        <g>
            <path d="M152.7,46.8L158,46.8L159.9,42L161.9,46.8L167,46.8L163.1,50.5L164.3,55.5L159.9,52.8L155.5,55.5L156.8,50.5L152.7,46.8Z" style="fill:rgb(251,202,48);"/>
        </g>
        <g transform="matrix(3.21047,0,0,3.21047,-83.2192,24.6073)">
            <g transform="matrix(12,0,0,12,44.6501,12.1914)">
                <path d="M0.573,-0L0.329,-0.647L0.298,-0.647L0.035,-0L0.082,-0L0.162,-0.203L0.446,-0.203L0.521,-0L0.573,-0ZM0.434,-0.238L0.176,-0.238L0.311,-0.579L0.434,-0.238Z" style="fill:white;fill-rule:nonzero;"/>
            </g>
            <g transform="matrix(12,0,0,12,51.8021,12.1914)">
                <path d="M0.511,-0.039L0.511,-0.306L0.326,-0.306L0.326,-0.269L0.469,-0.269L0.469,-0.068C0.428,-0.046 0.375,-0.021 0.326,-0.021C0.152,-0.021 0.113,-0.168 0.113,-0.324C0.113,-0.512 0.175,-0.62 0.333,-0.62C0.377,-0.62 0.418,-0.609 0.457,-0.592L0.475,-0.634C0.429,-0.646 0.377,-0.657 0.332,-0.657C0.137,-0.657 0.065,-0.523 0.065,-0.324C0.065,-0.149 0.118,0.016 0.323,0.016C0.395,0.016 0.444,-0.007 0.511,-0.039Z" style="fill:white;fill-rule:nonzero;"/>
            </g>
            <g transform="matrix(12,0,0,12,58.7141,12.1914)">
                <rect x="0.088" y="-0.647" width="0.046" height="0.647" style="fill:white;fill-rule:nonzero;"/>
            </g>
            <g transform="matrix(12,0,0,12,61.3781,12.1914)">
                <path d="M0.455,-0L0.455,-0.04L0.146,-0.04L0.146,-0.647L0.1,-0.647L0.1,-0L0.455,-0Z" style="fill:white;fill-rule:nonzero;"/>
            </g>
            <g transform="matrix(12,0,0,12,66.9461,12.1914)">
                <path d="M0.453,-0L0.453,-0.037L0.146,-0.037L0.146,-0.316L0.423,-0.316L0.423,-0.353L0.146,-0.353L0.146,-0.61L0.444,-0.61L0.444,-0.647L0.1,-0.647L0.1,-0L0.453,-0Z" style="fill:white;fill-rule:nonzero;"/>
            </g>
        </g>
    </g>
</svg>
